<svg xmlns="http://www.w3.org/2000/svg" width="304.074" height="46.026" viewBox="0 0 304.074 46.026">
  <g id="icon_logo_header" transform="translate(-49.034 -103.905)">
    <path id="Trazado_514" data-name="Trazado 514" d="M271.022,139.791h38.3a.613.613,0,0,1,.582.427l1.855,5.928,1.856-5.928a.609.609,0,0,1,.582-.427h38.3a.609.609,0,0,1,0,1.219H314.645l-2.3,7.357a.609.609,0,0,1-1.162,0l-2.3-7.357H271.022a.609.609,0,0,1,0-1.219" transform="translate(-0.001)" fill="#231f20"/>
    <path id="Trazado_515" data-name="Trazado 515" d="M277.078,133.3a5.707,5.707,0,0,1-4.381-1.692,6.021,6.021,0,0,1-1.584-4.283v-.434a6.88,6.88,0,0,1,1.493-4.59,5.31,5.31,0,0,1,4.325-1.763,4.981,4.981,0,0,1,3.857,1.49,5.8,5.8,0,0,1,1.371,4.08v2.011h-7.046l-.023.068a2.383,2.383,0,0,0,.714,1.563,2.5,2.5,0,0,0,1.8.6,7.8,7.8,0,0,0,1.835-.18,11.523,11.523,0,0,0,1.677-.582l.92,2.341a7.008,7.008,0,0,1-2.137.98,9.862,9.862,0,0,1-2.818.4m-.147-9.806a1.587,1.587,0,0,0-1.358.584,2.948,2.948,0,0,0-.506,1.586l.023.057h3.318v-.3a2.568,2.568,0,0,0-.335-1.444,1.291,1.291,0,0,0-1.142-.487" transform="translate(-0.001)" fill="#231f20"/>
    <path id="Trazado_516" data-name="Trazado 516" d="M292.983,129.607a1,1,0,0,0-.515-.813,5.6,5.6,0,0,0-1.881-.642,7.394,7.394,0,0,1-3.238-1.3,2.945,2.945,0,0,1-1.093-2.425,3.45,3.45,0,0,1,1.365-2.754,5.6,5.6,0,0,1,3.7-1.133,6.342,6.342,0,0,1,3.908,1.1,3.227,3.227,0,0,1,1.386,2.836l-.023.068h-3.728a1.528,1.528,0,0,0-.363-1.1,1.617,1.617,0,0,0-1.194-.374,1.549,1.549,0,0,0-1.011.33,1.032,1.032,0,0,0-.409.84,1,1,0,0,0,.471.829,5.31,5.31,0,0,0,1.9.615A7.607,7.607,0,0,1,295.6,127a3.029,3.029,0,0,1,1.079,2.493,3.258,3.258,0,0,1-1.471,2.734,6.457,6.457,0,0,1-3.89,1.072,5.834,5.834,0,0,1-3.974-1.271,3.511,3.511,0,0,1-1.392-2.842l.023-.068h3.477a1.541,1.541,0,0,0,.529,1.262,2.329,2.329,0,0,0,1.437.386,1.917,1.917,0,0,0,1.171-.3,1.014,1.014,0,0,0,.4-.858" transform="translate(-0.001)" fill="#231f20"/>
    <path id="Trazado_517" data-name="Trazado 517" d="M313.594,122.288a4.07,4.07,0,0,1,1.359-1.29,3.48,3.48,0,0,1,1.767-.461,3.67,3.67,0,0,1,3,1.331,6.444,6.444,0,0,1,1.09,4.125v7.069h-3.84V125.97a3.694,3.694,0,0,0-.365-1.944,1.243,1.243,0,0,0-1.1-.533,3.09,3.09,0,0,0-1.125.187,2.027,2.027,0,0,0-.785.528v8.854h-3.84V115.333h3.84Z" transform="translate(-0.001)" fill="#231f20"/>
    <path id="Trazado_518" data-name="Trazado 518" d="M325.23,126.8a6.507,6.507,0,0,1,1.566-4.518,6.373,6.373,0,0,1,8.763,0,6.5,6.5,0,0,1,1.567,4.518v.237a6.5,6.5,0,0,1-1.567,4.526,6.4,6.4,0,0,1-8.763,0,6.509,6.509,0,0,1-1.566-4.526Zm3.841.237a5.085,5.085,0,0,0,.482,2.427,1.716,1.716,0,0,0,1.642.88,1.7,1.7,0,0,0,1.613-.885,5.039,5.039,0,0,0,.49-2.422V126.8a5.059,5.059,0,0,0-.49-2.4,1.71,1.71,0,0,0-1.635-.9,1.689,1.689,0,0,0-1.62.908,5.125,5.125,0,0,0-.482,2.4Z" transform="translate(-0.001)" fill="#231f20"/>
    <path id="Trazado_519" data-name="Trazado 519" d="M346.2,127.641l.011.091h.069l2.033-6.967h4.092l-4.9,14.126a6.79,6.79,0,0,1-1.467,2.25,3.93,3.93,0,0,1-2.851.887,4.473,4.473,0,0,1-.82-.062c-.211-.044-.544-.121-1-.234l.467-2.739.237.052a1.033,1.033,0,0,0,.2.017,2.55,2.55,0,0,0,1.33-.268,1.593,1.593,0,0,0,.626-.8l.307-.8L340.3,120.765h4.079Z" transform="translate(-0.001)" fill="#231f20"/>
    <path id="Trazado_520" data-name="Trazado 520" d="M232.109,149.93h4.536a4.553,4.553,0,1,0,0-9.106v0h-4.536a4.492,4.492,0,0,1-1.94-.424V149.8a14.809,14.809,0,0,0,1.94.126" transform="translate(-0.001)" fill="#1995d3"/>
    <path id="Trazado_521" data-name="Trazado 521" d="M250.875,117.454a13.163,13.163,0,0,0-9.656-4.025h-9.11a13.729,13.729,0,0,0-13.7,13.7v9.111A13.73,13.73,0,0,0,230.169,149.8V140.4a4.725,4.725,0,0,1-1.3-.92,4.424,4.424,0,0,1-1.344-3.241v-9.111a4.594,4.594,0,0,1,4.588-4.553h9.11a4.623,4.623,0,0,1,4.551,4.553v18.252a4.554,4.554,0,0,0,9.109,0V127.125a13.215,13.215,0,0,0-4-9.671" transform="translate(-0.001)" fill="#231f20"/>
    <path id="Trazado_522" data-name="Trazado 522" d="M151.1,108.459a4.554,4.554,0,1,0-9.108,0v6.476H151.1Z" transform="translate(-0.001)" fill="#895197"/>
    <path id="Trazado_523" data-name="Trazado 523" d="M157.608,140.826l-.007-.005h-1.913a6.521,6.521,0,0,1-2.871-.9c-1.138-.6-1.715-1.83-1.715-3.689v-21.3h-9.109v21.3a13.694,13.694,0,0,0,13.7,13.7h1.906l.015-.007a4.55,4.55,0,0,0,0-9.1" transform="translate(-0.001)" fill="#231f20"/>
    <path id="Trazado_524" data-name="Trazado 524" d="M109.27,149.93h4.536a4.553,4.553,0,1,0,0-9.106v0H109.27a4.5,4.5,0,0,1-1.94-.424V149.8a14.832,14.832,0,0,0,1.94.126" transform="translate(-0.001)" fill="#a7cf39"/>
    <path id="Trazado_525" data-name="Trazado 525" d="M128.037,117.454a13.161,13.161,0,0,0-9.656-4.025H109.27a13.727,13.727,0,0,0-13.7,13.7v9.111A13.728,13.728,0,0,0,107.331,149.8V140.4a4.75,4.75,0,0,1-1.3-.92,4.425,4.425,0,0,1-1.345-3.241v-9.111a4.6,4.6,0,0,1,4.587-4.553h9.111a4.621,4.621,0,0,1,4.551,4.553v18.252a4.555,4.555,0,0,0,9.109,0V127.125a13.212,13.212,0,0,0-4-9.671" transform="translate(-0.001)" fill="#231f20"/>
    <path id="Trazado_526" data-name="Trazado 526" d="M79.374,125.632l4.263-4.264-.008,0a4.551,4.551,0,1,0-6.434-6.434l-.02-.02-4.5,4.493,6.463,6.465Z" transform="translate(-0.001)" fill="#ed1d24"/>
    <path id="Trazado_527" data-name="Trazado 527" d="M84.308,141.864,73.738,131.27l3.313-3.314,2.09-2.089L72.678,119.4l-6.232,6.23-2.323,2.324-5.979,5.976V108.459a4.555,4.555,0,0,0-9.109,0v36.917a4.553,4.553,0,0,0,8.036,2.935v0l10.217-10.6,10.781,10.809c.055.056.114.094.17.144l.012-.012a4.553,4.553,0,1,0,6.057-6.791" transform="translate(-0.001)" fill="#231f20"/>
    <path id="Trazado_528" data-name="Trazado 528" d="M185.666,131.682h0a4.553,4.553,0,0,0,4.554,4.552h0a4.553,4.553,0,0,1-4.554-4.551" transform="translate(-0.001)"/>
    <path id="Trazado_529" data-name="Trazado 529" d="M190.22,127.125h0a4.555,4.555,0,0,0-4.554,4.556v0a4.555,4.555,0,0,1,4.554-4.557" transform="translate(-0.001)" fill="#f8ac1a"/>
    <path id="Trazado_530" data-name="Trazado 530" d="M196.678,127.125H190.22a4.553,4.553,0,1,0,0,9.107h0v0h6.458Z" transform="translate(-0.001)" fill="#f8ac1a"/>
    <path id="Trazado_531" data-name="Trazado 531" d="M204.446,117.454a13.153,13.153,0,0,0-9.656-4.025h-9.109a13.71,13.71,0,0,0-13.7,13.7v9.111a13.684,13.684,0,0,0,13.7,13.694H203.9a4.553,4.553,0,1,0,0-9.106v0H185.681a4.59,4.59,0,0,1-4.585-4.585v-9.111a4.371,4.371,0,0,1,1.345-3.206,4.423,4.423,0,0,1,3.24-1.347h9.109a4.414,4.414,0,0,1,3.2,1.347,4.37,4.37,0,0,1,1.359,3.206h-2.669v9.11h8.379q3.395,0,3.4-3.4v-5.711a13.206,13.206,0,0,0-4.01-9.671" transform="translate(-0.001)" fill="#231f20"/>
  </g>
</svg>
